<svg xmlns="http://www.w3.org/2000/svg" width="563.826" height="541.64" viewBox="0 0 563.826 541.64">
  <g id="about-rrdevs" transform="translate(0.025 -0.03)">
    <path id="Path_8" data-name="Path 8" d="M741.184,444.809s-14.819-4.44-26.351-2.076-8.1,16.751-8.1,16.751l25.746-.865,13.032.865Z" transform="translate(-647.467 -377.604)" fill="#11393d"/>
    <path id="Path_9" data-name="Path 9" d="M737.218,448.63c13.147,18.134,24.679,91.422,24.679,91.422l40.766-33.559,9.572,5.536s-32.319,50.425-50.338,59.795-34.6-35.663-34.6-35.663Z" transform="translate(-607.837 -365.194)" fill="#11393d"/>
    <path id="Path_10" data-name="Path 10" d="M706.49,624.744V619.7c0-5.766,5.449-16.4,5.449-20.182s14.992,3.143,14.992,3.143a18.885,18.885,0,0,0,5.19,11.3,14.414,14.414,0,0,1,3.633,10.869Z" transform="translate(-647.023 -83.189)" fill="#11393d"/>
    <path id="Path_11" data-name="Path 11" d="M752.635,625.742l-2.595-1.211-1.211,1.211h-9.918c-.98-2.883-4.354-13.695-1.326-21.219,3.517-8.649,14.415-6.4,14.415-6.4s7.381,10.293,11.532,12.138,20.556,8.447,22.517,12.714c.577,1.269-.433,2.134,0,2.883Z" transform="translate(-590.791 -84.187)" fill="#11393d"/>
    <path id="Path_12" data-name="Path 12" d="M794.222,494.83c5.766,81.591,20.989,188.494,37.653,300.963,0,0-3.287,5.334-21.825,2.537l-57.084-238.8a1.673,1.673,0,0,0-1.528-1.067,1.643,1.643,0,0,0-1.643,1.586c-.663,17.99-6.429,73.057-3.344,239.063a22.863,22.863,0,0,1-20.182,0s-36.817-245.521-28.34-292.544Z" transform="translate(-665.533 -278.197)" fill="#4b9fa3"/>
    <path id="Path_13" data-name="Path 13" d="M805.739,509.968v4.411c0,3.835,0,7.784-.173,11.734v4.44c0,4.267-.173,8.649-.317,12.83v4.526c0,3.95-.26,7.9-.4,11.705,0,1.5,0,3.027-.144,4.5-.173,4.238-.346,8.332-.49,12.2a29.392,29.392,0,0,1-.231,4.526c0,3.287-.288,6.4-.4,9.255a29.417,29.417,0,0,1-.231,4.584c-.173,3.171-.317,5.968-.433,8.274s-.2,3.633-.26,4.9a21.474,21.474,0,0,1-.173,3.085s-11.792,12.685-37.768,16.779c-45.7,7.265-61.294-9.168-61.294-9.168s-.231-2.422-.606-6.66c-.144-1.384-.288-2.883-.461-4.786-.288-3.229-.634-7.006-1.009-11.215-.144-1.47-.26-2.883-.4-4.584-.346-3.69-.692-7.64-1.038-11.763,0-1.47-.259-2.883-.375-4.5-.346-4.036-.692-8.217-1.067-12.455,0-1.47-.231-2.883-.375-4.5-.259-3.46-.548-6.977-.865-10.466a29.506,29.506,0,0,0-.346-4.5c-2.508-31.714-4.5-62.937-3.316-68.617,2.018-9.86,15.453-22.43,34.6-27.764a70.813,70.813,0,0,1,15.626-2.508,194.748,194.748,0,0,1,20.931,0c16.52.865,29.321,4.325,36.153,12.368a10.271,10.271,0,0,1,.75.894,10.61,10.61,0,0,1,1.557,3.748,48.064,48.064,0,0,1,1.038,5.766c.2,1.326.346,2.883.519,4.353.317,3.114.548,6.689.721,10.552a37.823,37.823,0,0,0,.173,4.382c0,3.143.2,6.429.231,9.86v4.382Z" transform="translate(-672.033 -374.002)" fill="#fff"/>
    <path id="Path_14" data-name="Path 14" d="M761.666,465.472a76.416,76.416,0,0,1-5.276,9.6c-2.162,2.883-6.026,11.705,1.384,15.626s22.661-6.544,22.661-6.544a10.955,10.955,0,0,0,3.287-10.466c2.364-2.134.894-7.294.894-7.294l2.566-4.872c-5.507-2.71-5.017,3.056-11.273,8.217a39.955,39.955,0,0,1-7.7,2.883h0a39.775,39.775,0,0,1-5.161,1.672h0a53.7,53.7,0,0,0,.317-7.611C763.137,464.2,761.666,465.472,761.666,465.472Z" transform="translate(-558.623 -342.221)" fill="#f3a17a"/>
    <path id="Path_15" data-name="Path 15" d="M768.34,477.727s.433-4.18-.865-4.325a4.036,4.036,0,0,0-2.22,2.018,8.13,8.13,0,0,1-3.2,5.968c-3.114,2.278-1.442-12.4-1.442-12.4,1.355,3.258,6.516-.144,7.15-2.653s1.73-3.488,2.883-3.892,1.413,1.038,1.413,1.038a2.393,2.393,0,0,0-1.585.346,11.533,11.533,0,0,0-3.344,4.757c0,1.326.4-1.3,1.614-.75a2.883,2.883,0,0,1,1.528,1.759s-1.211-1.009-1.96,0a8.253,8.253,0,0,0-1.067,3.056S770.877,471.961,768.34,477.727Z" transform="translate(-545.951 -339.311)" fill="#d86"/>
    <path id="Path_16" data-name="Path 16" d="M756.76,466.612a4.122,4.122,0,0,1,1.182,5.766c-2.335,3.4,0,5.3,0,5.3s6.285-7.179,4.065-12.743h0a39.772,39.772,0,0,1-5.247,1.672Z" transform="translate(-552.362 -334.481)" fill="#d86"/>
    <path id="Path_17" data-name="Path 17" d="M712.846,444.558s-9.658,2.883-3.46,6.516,17.01,11.33,27.822,6.372S747.933,441.214,712.846,444.558Z" transform="translate(-645.479 -374.009)" fill="#cdcfd0"/>
    <path id="Path_18" data-name="Path 18" d="M720.12,444s14.415,2.076,13.06,54.778,3.69,146.633,3.69,146.633l18.192-15.8-1.989-60.746s8.649-88.02-2.335-111.373C750.738,457.349,741.426,444.49,720.12,444Z" transform="translate(-621.357 -373.913)" fill="#1a4850"/>
    <path id="Path_19" data-name="Path 19" d="M716.85,442.79s20.181.432,34.6,23.872l-7.093,11.244L752.8,500.97l-13.464,34.049s2.652-78.852-22.488-87.933Z" transform="translate(-627.515 -376.191)" fill="#11393d"/>
    <path id="Path_20" data-name="Path 20" d="M753.013,454.411c-.4,1.528-.836,2.883-1.355,4.469a50.769,50.769,0,0,1-2.076,5.449,36.176,36.176,0,0,1-5.766,9.8c-5.046,5.766-17.76,5.161-26.207-2.278-5.564-4.93-9.255-12.858-7.64-24.016,4.008-28.023,21.738-30.1,40.565-17.76C756.07,433.624,755.695,444.263,753.013,454.411Z" transform="translate(-641.19 -413.673)" fill="#f3a17a"/>
    <path id="Path_21" data-name="Path 21" d="M757.3,443.081s-9.687-11.532-29.09-10.321c0,0-7.265,14.848-9.8,21.681,0,0-7.381.98-3.719,16.4,0,0-8.649-2.624-5.766-26.87,2.537-21.046,15.453-17.3,15.453-17.3s5.391-9.024,19.72-6.545C758.859,422.582,764.712,436.133,757.3,443.081Z" transform="translate(-643.547 -419.67)" fill="#4f443a"/>
    <path id="Path_22" data-name="Path 22" d="M717.916,432.446c-.346,1.528,0,2.883.923,3.143s1.816-.894,2.162-2.422,0-2.883-.894-3.142S718.406,430.918,717.916,432.446Z" transform="translate(-625.755 -400.299)" fill="#1a4850"/>
    <path id="Path_23" data-name="Path 23" d="M722.7,433.966c-.346,1.557,0,2.883.894,3.143s1.845-.894,2.191-2.422,0-2.883-.894-3.143S723.042,432.438,722.7,433.966Z" transform="translate(-616.755 -397.437)" fill="#1a4850"/>
    <path id="Path_24" data-name="Path 24" d="M745.894,449.123a36.191,36.191,0,0,1-5.766,9.8c-5.045,5.766-17.76,5.161-26.207-2.278a50.8,50.8,0,0,1-1.73-23.41l.922-2.278s.259,7.611,9.975,11.676a149.487,149.487,0,0,0,22.805,6.487Z" transform="translate(-637.501 -398.468)" fill="#716558"/>
    <path id="Path_25" data-name="Path 25" d="M723.481,433s1.874,6.631,4.815,6.343-.605,5.766-7.669,1.816A8.851,8.851,0,0,1,723.481,433Z" transform="translate(-620.653 -394.626)" fill="#dd774e"/>
    <path id="Path_26" data-name="Path 26" d="M715.841,432.688a2.883,2.883,0,1,0,3.719-.548,2.71,2.71,0,0,0-3.719.548Z" transform="translate(-630.743 -397.197)" fill="#ed7d66"/>
    <path id="Path_27" data-name="Path 27" d="M723.19,436.231a2.6,2.6,0,0,0,2.883,2.191c.49-1.442.923-2.883,1.326-4.44a3.713,3.713,0,0,0-1.413-.231,2.681,2.681,0,0,0-2.8,2.479Z" transform="translate(-615.576 -393.216)" fill="#ed7d66"/>
    <path id="Path_28" data-name="Path 28" d="M718.18,429.079a.49.49,0,0,1-.4-.346.605.605,0,0,1,.288-.836,8.477,8.477,0,0,1,6.228,0,.64.64,0,0,1-.49,1.182,7.092,7.092,0,0,0-5.19,0,.751.751,0,0,1-.432,0Z" transform="translate(-625.904 -405.351)" fill="#4f443a"/>
    <path id="Path_29" data-name="Path 29" d="M727.065,432.985a.634.634,0,0,1-.461-.721c.173-1.038-1.816-1.787-2.508-1.96a.634.634,0,0,1-.461-.778.6.6,0,0,1,.749-.461h0c1.442.375,3.777,1.5,3.46,3.4a.634.634,0,0,1-.721.519Z" transform="translate(-614.78 -402.078)" fill="#4f443a"/>
    <path id="Path_30" data-name="Path 30" d="M718.511,434.686s-3.287-6.256-8.188-4.008,0,13.55,4.469,14.213S718.511,434.686,718.511,434.686Z" transform="translate(-643.649 -399.916)" fill="#f3a17a"/>
    <path id="Path_31" data-name="Path 31" d="M728.025,438.622l-10.177-1.182s-1.557,5.507,3.489,6.573S728.025,438.622,728.025,438.622Z" transform="translate(-626.062 -386.266)" fill="#fff"/>
    <path id="Path_32" data-name="Path 32" d="M734.889,455.163s-3.056,7.554.49,13.2c0,0-11.331,9.255-26.149-2.191,0,0,7.583-18.279.606-31.166a33.965,33.965,0,0,1,4.469.4C714.333,435.385,717.5,455.163,734.889,455.163Z" transform="translate(-641.864 -390.841)" fill="#d86"/>
    <path id="Path_33" data-name="Path 33" d="M730.98,444.44s17.039,42.525,15.511,84.7-10.984,115.322-10.984,115.322l-38.547-8.274L694.74,554V464.91A52.875,52.875,0,0,1,730.98,444.44Z" transform="translate(-669.149 -373.084)" fill="#1a4850"/>
    <path id="Path_34" data-name="Path 34" d="M694.578,518.71a38.354,38.354,0,0,1,3.258,5.968,30.262,30.262,0,0,1,.346,8.015s-.231.548-1.038,0c-1.24-.807,0-3.892-2.047-4.786S694.578,518.71,694.578,518.71Z" transform="translate(-670.486 -233.229)" fill="#d86"/>
    <path id="Path_35" data-name="Path 35" d="M692.494,516.517s10.292-1.211,12.57,1.643c0,0,1.759,8.39,2.71,11.1s.461,13.32-1.124,15.107c-4.18,4.786-4.411,4.5-5.42,3.431s2.537-3.719,2.883-5.218a23.045,23.045,0,0,0-.894-4.238,6.054,6.054,0,0,1-2.335,4.93c-2.018,1.182-3.69,2.451-4.728,1.816-1.874-1.182,2.883-3.863,2.508-5.19,0-.461-.548-3.489-.548-3.489-.49.865-.548,2.393-1.153,3.114s-4.526,3.46-5.189,2.566c-1.067-1.413,2.364-3.6,2.393-4.959,0-.548-.49-2.883-.49-2.883a11.922,11.922,0,0,1-1.528,2.451c-.721.577-4.036,2.162-4.238,1.413-.548-1.989,2.739-2.883,3.085-5.766.288-2.335-.807-7.784.605-10.119a10.814,10.814,0,0,0,.894-5.709Z" transform="translate(-682.126 -237.84)" fill="#f3a17a"/>
    <path id="Path_36" data-name="Path 36" d="M712.538,451.07s12.887,22.776,11.532,37.739c-.605,7.063-13.723,64.119-13.723,64.119s3.2,72.451-1.73,88.914c0,0-10.523-.317-12.945-2.595,0,0-11.936-45.379-9.485-89.779C688.666,506.05,702.332,460.671,712.538,451.07Z" transform="translate(-685.88 -360.599)" fill="#11393d"/>
    <path id="Path_37" data-name="Path 37" d="M722.524,442.29s-18.394,3.4-20.354,25.313l13.32,10.9-3.143,19.288,19.864,42.093s4.354-30.07-10.523-77.7C721.688,462.183,719.267,445.231,722.524,442.29Z" transform="translate(-655.158 -377.133)" fill="#11393d"/>
    <path id="Path_38" data-name="Path 38" d="M996.76,515.049,950.025,670.158a10.926,10.926,0,0,1-10.465,7.756H889.712a10.926,10.926,0,0,0-10.927,10.927V794.245a10.927,10.927,0,0,0,10.927,10.927H807.487a10.927,10.927,0,0,1-10.927-10.927V688.84a10.926,10.926,0,0,1,10.926-10.927h49.762a10.927,10.927,0,0,0,10.465-7.755l45.437-150.323a26.5,26.5,0,0,1,25.371-18.855h47.83a10.9,10.9,0,0,1,10.408,14.069Z" transform="translate(-477.416 -266.616)" fill="none" stroke="#58595b" stroke-linecap="round" stroke-miterlimit="10" stroke-width="2.25"/>
    <path id="Path_39" data-name="Path 39" d="M836.635,594.287h63.572a11.533,11.533,0,0,0,11.157-8.3l21.364-70.75a7.409,7.409,0,0,0-7.092-9.543h-63.6a11.532,11.532,0,0,0-11.157,8.3l-21.335,70.779a7.439,7.439,0,0,0,7.092,9.514Z" transform="translate(-415.863 -257.747)" fill="#11393d"/>
    <path id="Path_40" data-name="Path 40" d="M836.542,594.287h54.922a11.532,11.532,0,0,0,11.157-8.3l21.364-70.75a7.409,7.409,0,0,0-7.092-9.543H862.115a11.705,11.705,0,0,0-11.186,8.3l-21.335,70.779a7.439,7.439,0,0,0,6.948,9.514Z" transform="translate(-415.769 -257.747)" fill="#4b9fa3"/>
    <path id="Path_41" data-name="Path 41" d="M121.157,131.93h116.1a9.716,9.716,0,0,1,9.716,9.716v15.136H111.47V141.646a9.716,9.716,0,0,1,9.687-9.716Z" transform="translate(209.952 248.375)" fill="#4b9fa3"/>
    <path id="Path_1203" data-name="Path 1203" d="M1.51,0H146.218a1.51,1.51,0,0,1,1.51,1.51V13.021a1.51,1.51,0,0,1-1.51,1.51H1.51A1.51,1.51,0,0,1,0,13.021V1.51A1.51,1.51,0,0,1,1.51,0Z" transform="translate(315.31 396.046)" fill="#11393d"/>
    <path id="Path_42" data-name="Path 42" d="M884.7,501h47.83a10.9,10.9,0,0,1,10.437,14.069L896.234,670.178a10.927,10.927,0,0,1-10.466,7.756H836.007A10.927,10.927,0,0,0,825.08,688.86V794.207a10.927,10.927,0,0,0,10.927,10.927h64.321" transform="translate(-423.711 -266.578)" fill="none" stroke="#808081" stroke-linecap="round" stroke-miterlimit="10" stroke-width="2.25"/>
    <path id="Path_43" data-name="Path 43" d="M870.637,493.957c-17.3,5.42-26.87,23.757-47.052,47.225a510.089,510.089,0,0,1-23.065-59.622l-9.341,2.191s11.878,90.9,24.131,90.788,52.414-23.266,57.892-37.682S870.637,493.957,870.637,493.957Z" transform="translate(-487.547 -303.185)" fill="#d14e4e"/>
    <path id="Path_44" data-name="Path 44" d="M839.567,626.4l.173-6.112c.173-5.622-4.757-17.817-4.642-21.594s-14.646,2.652-14.646,2.652a21.338,21.338,0,0,1-5.391,12.6c-3.229,3.287-3.892,9.2-3.921,12.455Z" transform="translate(-449.961 -84.848)" fill="#11393d"/>
    <path id="Path_45" data-name="Path 45" d="M826.409,626.608a84.218,84.218,0,0,0-4.642-27.216s-13.06-6.487-16.03,3.95-16.491,12.484-23.382,13.233c-5.045.519-5.766,7.121-5.766,10.033Z" transform="translate(-515.021 -85.053)" fill="#11393d"/>
    <path id="Path_46" data-name="Path 46" d="M949.087,537.773l-64.956-2.883s-69.568,5.1-103.329,26.726c-13.637,8.649,19.057,159.606,19.057,159.606h24.91l-8.88-125.471s71.125-2.076,92.258-11.532S949.087,537.773,949.087,537.773Z" transform="translate(-513.352 -202.761)" fill="#4f443a"/>
    <path id="Path_47" data-name="Path 47" d="M815.836,721.865s-9.283-161.192-.461-168.486S910.66,534.61,910.66,534.61s-.173,43.794-23.381,57.373-39.21,16.751-39.21,16.751l-11.1,113.131Z" transform="translate(-449.15 -203.289)" fill="#716558"/>
    <path id="Path_48" data-name="Path 48" d="M908.907,636.337c2.883-30.1,14.214-116.043,13.406-120.281-2.595-13.377-23.353-31.4-50.915-32.78q-4.555-.2-8.649-.173c-22.027.259-34.078,6.487-42.381,18.019-2.393,3.344-6.285,14.617-7.15,29.955a461.575,461.575,0,0,0,5.074,101.455C834.351,648.648,908.907,636.337,908.907,636.337Z" transform="translate(-447.627 -300.287)" fill="#e56361"/>
    <path id="Path_49" data-name="Path 49" d="M826.32,485.754s1.989,23.814,7.15,29.349c0,0,3.69-7.179,20.412-9.37,0,0-6.227-16.866-1.153-30.618,0,0-6.17.721-7.381-1.845C845.348,473.27,845.579,484.024,826.32,485.754Z" transform="translate(-421.376 -318.795)" fill="#d86"/>
    <path id="Path_50" data-name="Path 50" d="M846.048,503.661l-2.566-5.766c-11.763.865-15.28-4.844-15.28-4.844l-3.662,4.844c.692-11.532,7.15-14.906,7.15-14.906a8.878,8.878,0,0,0,1.931,5.536l2.883,6.054,5.189-5.247c6.2,1.211,13.983-6.862,13.983-6.862l4.469,3.921C861.5,495.761,846.048,503.661,846.048,503.661Z" transform="translate(-424.728 -301.471)" fill="#d14e4e"/>
    <path id="Path_51" data-name="Path 51" d="M841.07,493.379c-11.705,3.6-15.28-4.844-15.28-4.844,1.7-4.094,3.95-3.719,3.95-3.719l3.489,9.745,5.449-5.939Z" transform="translate(-422.374 -297.071)" fill="#e56361"/>
    <path id="Path_52" data-name="Path 52" d="M838.654,487.784s-2.22,7.035-4.67,17.9-5.074,25.486-6.833,40.219c-.865,7.381-1.557,14.79-2.076,21.738-.2,3.46-.4,6.833-.577,10s-.231,6.227-.346,9c-.231,5.593-.173,10.235-.2,13.493v0c0-3.258-.173-7.9,0-13.493,0-2.883,0-5.766.173-9s.26-6.574.4-10.062c.4-6.948.951-14.415,1.7-21.8,1.5-14.819,3.834-29.551,6.112-40.507s4.382-18.135,4.382-18.135Z" transform="translate(-425.983 -292.659)" fill="#d14e4e"/>
    <path id="Path_53" data-name="Path 53" d="M832.316,499.36l17.01,2.883-3.777,21.882-16.779-2.364S830.385,504.088,832.316,499.36Z" transform="translate(-416.762 -269.666)" fill="#d14e4e"/>
    <path id="Path_54" data-name="Path 54" d="M852.771,519.1c-.375,3.777-8.1,3.4-8.1,3.4s-4.383.721-6.718.807c0,0,.231,2.883-1.038,2.883s-1.816-4.5-1.816-4.5-2.278,4.872-3.2,4.5-.75-5.218-.75-5.218-2.71,0-2.883.721a15.916,15.916,0,0,1-1.125,2.883c-.548,1.153-1.211,2.076-1.758,1.7-1.1-.721-.548-6.516-.548-6.516a9.934,9.934,0,0,0-1.961.173c-.548.2-1.816,4.325-3.6,1.816a9.687,9.687,0,0,1,3.6-6.66,32.576,32.576,0,0,1,11.532-3.431,40.91,40.91,0,0,1,13.637,1.442C849.369,513.854,853.088,515.3,852.771,519.1Z" transform="translate(-434.652 -246.652)" fill="#f3a17a"/>
    <path id="Path_55" data-name="Path 55" d="M825.751,518s-.577-2.883.894-3.46a27.3,27.3,0,0,1,4.18-.951,21.1,21.1,0,0,0-5.189.692c-1.96.663-1.269,6.285-1.269,6.285Z" transform="translate(-425.276 -242.87)" fill="#d86"/>
    <path id="Path_56" data-name="Path 56" d="M829.266,513.13a5.912,5.912,0,0,0-2.508,1.326,10.64,10.64,0,0,0-.749,3.69s-2.71,0-2.883.721A15.915,15.915,0,0,1,822,521.75a16.806,16.806,0,0,1,1.586-6.285C824.883,513.418,828.631,513.159,829.266,513.13Z" transform="translate(-429.511 -243.737)" fill="#d86"/>
    <path id="Path_57" data-name="Path 57" d="M825.911,513.12s-3.056,1.874-3.431,3.777a9.945,9.945,0,0,0-1.961.173,6.227,6.227,0,0,1,5.392-3.95Z" transform="translate(-432.298 -243.755)" fill="#d86"/>
    <path id="Path_58" data-name="Path 58" d="M840.621,514.19c-.375,3.777-8.1,3.4-8.1,3.4s-4.382.721-6.718.807c-.317-1.1.4-1.557.49-2.45,0,0,3.258,0,3.892-.548a7.985,7.985,0,0,0,4.411-.346C835.922,514.19,838.459,517.333,840.621,514.19Z" transform="translate(-422.502 -241.741)" fill="#d86"/>
    <path id="Path_59" data-name="Path 59" d="M864.774,496.643c-11.532,25.948-40.565,16.664-42.64,4.209a47.6,47.6,0,0,1,1.557-17.01c.375-1.5.778-2.883,1.24-4.469,3.143-10.062,8.476-19.259,14.934-19.374C862.468,459.538,876.277,470.724,864.774,496.643Z" transform="translate(-429.616 -343.811)" fill="#f3a17a"/>
    <path id="Path_60" data-name="Path 60" d="M826.6,470.159s14.415-4.7,30.128,6.746c0,0-1.759,16.434-3.258,23.583,0,0,5.766,4.757-5.564,15.857,0,0,8.649,2.451,19.2-19.662,9.024-19.2-3.863-23.064-3.863-23.064s-2.277-10.466-19.749-15.857C829.168,453.438,821.7,461.078,826.6,470.159Z" transform="translate(-423.676 -350.339)" fill="#145b6b"/>
    <path id="Path_61" data-name="Path 61" d="M832.46,469.924c-.519,1.5-1.586,2.479-2.422,2.191s-1.067-1.73-.548-3.229,1.586-2.451,2.422-2.162S832.979,468.454,832.46,469.924Z" transform="translate(-415.926 -331.22)" fill="#1a4850"/>
    <path id="Path_62" data-name="Path 62" d="M827.629,468.674c-.519,1.5-1.615,2.451-2.451,2.162s-1.067-1.7-.548-3.2,1.615-2.451,2.422-2.162S828.147,467.088,827.629,468.674Z" transform="translate(-425.077 -333.574)" fill="#1a4850"/>
    <path id="Path_63" data-name="Path 63" d="M831.873,467.66s-5.1,4.613-7.467,2.883-2.537,5.189,5.564,5.622a8.85,8.85,0,0,0,1.9-8.505Z" transform="translate(-427.65 -329.359)" fill="#dd774e"/>
    <path id="Path_64" data-name="Path 64" d="M823.62,472.19s11.157,2.566,12.022,4.411-1.1,2.883-5.42,1.759a8.189,8.189,0,0,1-6.6-6.17Z" transform="translate(-426.46 -320.829)" fill="#fff"/>
    <path id="Path_65" data-name="Path 65" d="M835.547,472.051a2.884,2.884,0,1,1-2.8-2.97,2.885,2.885,0,0,1,2.8,2.97Z" transform="translate(-414.862 -326.686)" fill="#ed7d66"/>
    <path id="Path_66" data-name="Path 66" d="M826.154,470.862a2.623,2.623,0,0,1-3.6.317c.375-1.5.778-2.883,1.24-4.468a3.2,3.2,0,0,1,1.3.548,2.681,2.681,0,0,1,1.067,3.6Z" transform="translate(-428.475 -331.148)" fill="#ed7d66"/>
    <path id="Path_67" data-name="Path 67" d="M835.311,468.03a.72.72,0,0,0,.548,0,.634.634,0,0,0,.2-.865,8.247,8.247,0,0,0-5.276-3.287.635.635,0,0,0-.75.49.664.664,0,0,0,.519.75,7.237,7.237,0,0,1,4.44,2.71.9.9,0,0,0,.317.2Z" transform="translate(-414.395 -336.505)" fill="#145b6b"/>
    <path id="Path_68" data-name="Path 68" d="M824.961,465.172a.634.634,0,0,0,.778-.346c.4-.98,2.451-.548,3.143-.317a.663.663,0,0,0,.807-.4.634.634,0,0,0-.4-.807h0c-1.413-.461-3.979-.75-4.728,1.038a.663.663,0,0,0,.346.836Z" transform="translate(-424.774 -338.231)" fill="#145b6b"/>
    <path id="Path_69" data-name="Path 69" d="M837.34,472.646s6.141-3.575,9.053.951-7.092,11.532-11.3,9.658S837.34,472.646,837.34,472.646Z" transform="translate(-407.543 -322.496)" fill="#f3a17a"/>
    <path id="Path_70" data-name="Path 70" d="M833.427,456.9c-6.487-.173-11.792,8.851-6.026,14.415l1.067-2.1,4.152,3.719-.173-3.056,11.359,5.766-1.1-3.4s8.649,4.469,14.415,4.123S846.66,457.19,833.427,456.9Z" transform="translate(-423.986 -349.623)" fill="#145b6b"/>
    <path id="Path_71" data-name="Path 71" d="M883.01,489.238c-19.172-1.009-8.966,25.948,7.323,51.549L828.26,556.212l1.1,7.784s90.1,2.479,101.484-5.334c6.141-4.209-15.914-36.125-30.5-53.567C888.055,490.247,883.01,489.238,883.01,489.238Z" transform="translate(-417.723 -288.779)" fill="#d14e4e"/>
    <path id="Path_72" data-name="Path 72" d="M808.155,479.392a76.4,76.4,0,0,0,5.276,9.6c2.162,2.883,6.054,11.705-1.384,15.626s-22.661-6.544-22.661-6.544a10.9,10.9,0,0,1-3.258-10.466c-2.393-2.133-.923-7.294-.923-7.294l-2.566-4.872c5.507-2.71,5.017,3.056,11.3,8.217a38.52,38.52,0,0,0,7.7,2.883h0a41.4,41.4,0,0,0,5.161,1.672h0a48.6,48.6,0,0,1-.346-7.611C806.742,478.153,808.155,479.392,808.155,479.392Z" transform="translate(-503.628 -316.009)" fill="#f3a17a"/>
    <path id="Path_73" data-name="Path 73" d="M787.134,491.647s-.461-4.18.865-4.325a4.094,4.094,0,0,1,2.22,2.047,7.957,7.957,0,0,0,3.171,5.939c3.114,2.278,1.442-12.4,1.442-12.4-1.326,3.258-6.487,0-7.15-2.653s-1.7-3.488-2.71-3.892-1.442,1.038-1.442,1.038a2.394,2.394,0,0,1,1.586.346,11.533,11.533,0,0,1,3.344,4.757c0,1.326-.375-1.3-1.586-.75a2.883,2.883,0,0,0-1.557,1.759s1.211-1.009,1.989,0a8.653,8.653,0,0,1,1.038,3.056S784.626,485.881,787.134,491.647Z" transform="translate(-501.952 -313.099)" fill="#d86"/>
    <path id="Path_74" data-name="Path 74" d="M794.726,480.551a4.152,4.152,0,0,0-1.182,5.766c2.364,3.373,0,5.276,0,5.276s-6.285-7.179-4.036-12.743h0a41.371,41.371,0,0,0,5.218,1.7Z" transform="translate(-491.612 -308.288)" fill="#d86"/>
    <path id="Path_75" data-name="Path 75" d="M725.3,526.03V762.441c0,2.883.779,4.988,1.73,4.988h44.313c.951,0,1.73-2.249,1.73-4.988V526.03c0-2.883.779-4.988,1.759-4.988h391.4c.98,0,1.758,2.22,1.758,4.988V762.441c0,2.883-.778,4.988-1.758,4.988h-44.284c-.952,0-1.759-2.249-1.759-4.988V526.03c0-2.883-.779-4.988-1.73-4.988H727.03C726.079,520.927,725.3,523.263,725.3,526.03Z" transform="translate(-611.603 -228.844)" fill="none" stroke="#58595b" stroke-linecap="round" stroke-miterlimit="10" stroke-width="2.25"/>
    <path id="Path_76" data-name="Path 76" d="M1166.235,521c.98,0,1.758,2.22,1.758,4.988V762.4c0,2.883-.778,4.988-1.758,4.988h-44.284c-.952,0-1.759-2.249-1.759-4.988V525.988c0-2.883-.779-4.988-1.73-4.988H727.03c-.951,0-1.73,2.22-1.73,4.988V762.4c0,2.883.779,4.988,1.73,4.988" transform="translate(-611.603 -228.917)" fill="none" stroke="#808081" stroke-linecap="round" stroke-miterlimit="10" stroke-width="2.25"/>
    <path id="Path_77" data-name="Path 77" d="M38.075,95.93H439.888V108.27H40.382a2.422,2.422,0,0,1-2.422-2.422V95.93Z" transform="translate(71.528 180.585)" fill="#cdcfd0"/>
    <path id="Path_78" data-name="Path 78" d="M177.445,94.88h49.012v12.974a2.422,2.422,0,0,1-2.422,2.422H177.33V94.88Z" transform="translate(333.97 178.607)" fill="#b8babc"/>
    <path id="Path_79" data-name="Path 79" d="M1134.306,513.3H723.527c-.433,0-.807,1.038-.807,2.306V522.5c0,1.269.375,2.306.807,2.306h410.778Z" transform="translate(-616.461 -243.417)" fill="#fff"/>
    <path id="Path_80" data-name="Path 80" d="M916.445,513.3H863.166c-.461,0-.836,1.038-.836,2.306V522.5c0,1.269.375,2.306.836,2.306h53.279c.519,0,.923-1.211.923-2.681v-6.141C917.368,514.511,916.964,513.3,916.445,513.3Z" transform="translate(-353.567 -243.417)" fill="#e3e4e5"/>
    <path id="Path_81" data-name="Path 81" d="M811.73,518.573V510.5l38.056,3.6a2.652,2.652,0,0,1,2.422,2.652v1.816Z" transform="translate(-448.85 -248.689)" fill="#4f443a"/>
    <path id="Path_82" data-name="Path 82" d="M854.909,510.5H791.481a2.681,2.681,0,0,0-2.681,2.681v5.391h66.311Z" transform="translate(-492.028 -248.689)" fill="#716558"/>
    <path id="Path_83" data-name="Path 83" d="M888.624,564.584H776.559A7.006,7.006,0,0,1,769.7,558.3l-7.553-84.993a5.766,5.766,0,0,1,5.766-6.256H879.975a6.977,6.977,0,0,1,6.862,6.256L894.39,558.3a5.766,5.766,0,0,1-5.766,6.285Z" transform="translate(-542.263 -330.508)" fill="#716558"/>
    <path id="Path_84" data-name="Path 84" d="M887.181,564.584H775.059a7.063,7.063,0,0,1-6.891-6.285l-7.525-84.992a5.766,5.766,0,0,1,5.766-6.256H878.532a6.976,6.976,0,0,1,6.861,6.256l7.554,84.993a5.766,5.766,0,0,1-5.766,6.285Z" transform="translate(-545.088 -330.508)" fill="#4f443a"/>
    <path id="Path_85" data-name="Path 85" d="M769.76,559.36h61.063l-4.584-4.728a3.777,3.777,0,0,0-2.335-1.153l-23.612-2.537L818.4,515.8l-4.469-26.957h-21.94l-10,62.13-8.418,2.133a3.748,3.748,0,0,0-2.739,2.652Z" transform="translate(-527.882 -289.476)" fill="#4f443a"/>
    <path id="Path_86" data-name="Path 86" d="M773.51,559.36l10.9-67.435a3.69,3.69,0,0,1,3.633-3.085H801.88a3.661,3.661,0,0,1,3.488,4.757L784.927,559.36Z" transform="translate(-520.82 -289.476)" fill="#716558"/>
  </g>
</svg>
